<svg xmlns="http://www.w3.org/2000/svg" viewBox="0 0 1600 900" preserveAspectRatio="xMidYMid slice" role="img" aria-label="composite bridge backdrop">
  <defs>
    <linearGradient id="split" x1="0" y1="0" x2="1" y2="0">
      <stop offset="0%" stop-color="#0F172A"/>
      <stop offset="48%" stop-color="#1A2338"/>
      <stop offset="52%" stop-color="#2C1B10"/>
      <stop offset="100%" stop-color="#0F172A"/>
    </linearGradient>
    <linearGradient id="skyleft" x1="0" y1="0" x2="0" y2="1">
      <stop offset="0%" stop-color="#3F9A6A" stop-opacity="0.35"/>
      <stop offset="100%" stop-color="#0F172A" stop-opacity="0"/>
    </linearGradient>
    <linearGradient id="skyright" x1="0" y1="0" x2="0" y2="1">
      <stop offset="0%" stop-color="#D97706" stop-opacity="0.35"/>
      <stop offset="100%" stop-color="#0F172A" stop-opacity="0"/>
    </linearGradient>
    <linearGradient id="bridgefade" x1="0" y1="0" x2="1" y2="0">
      <stop offset="0%" stop-color="#3F9A6A" stop-opacity="0.85"/>
      <stop offset="50%" stop-color="#F5F7FB" stop-opacity="0.6"/>
      <stop offset="100%" stop-color="#C55A48" stop-opacity="0.85"/>
    </linearGradient>
  </defs>
  <rect width="1600" height="900" fill="url(#split)"/>
  <rect x="0" y="0" width="800" height="900" fill="url(#skyleft)"/>
  <rect x="800" y="0" width="800" height="900" fill="url(#skyright)"/>
  <path d="M0 660 L160 560 L320 600 L480 500 L640 580 L800 560 L800 900 L0 900 Z" fill="#0F172A" fill-opacity="0.9"/>
  <g>
    <rect x="880" y="340" width="40" height="440" fill="#2C1B10" opacity="0.9"/>
    <rect x="980" y="280" width="36" height="500" fill="#2C1B10" opacity="0.9"/>
    <rect x="1080" y="380" width="44" height="400" fill="#2C1B10" opacity="0.9"/>
    <rect x="1200" y="320" width="32" height="460" fill="#2C1B10" opacity="0.9"/>
    <rect x="1300" y="400" width="40" height="380" fill="#2C1B10" opacity="0.9"/>
    <rect x="1420" y="360" width="36" height="420" fill="#2C1B10" opacity="0.9"/>
  </g>
  <rect x="0" y="720" width="1600" height="6" fill="url(#bridgefade)" opacity="0.9"/>
  <rect x="0" y="780" width="1600" height="120" fill="#07090F" opacity="0.95"/>
</svg>
