<svg xmlns="http://www.w3.org/2000/svg" viewBox="0 0 1600 900" preserveAspectRatio="xMidYMid slice" role="img" aria-label="fictional myth backdrop">
  <defs>
    <radialGradient id="sky" cx="50%" cy="35%" r="75%">
      <stop offset="0%" stop-color="#1E293B"/>
      <stop offset="55%" stop-color="#0F172A"/>
      <stop offset="100%" stop-color="#050912"/>
    </radialGradient>
    <linearGradient id="aura" x1="0" y1="0" x2="0" y2="1">
      <stop offset="0%" stop-color="#D97706" stop-opacity="0"/>
      <stop offset="55%" stop-color="#D97706" stop-opacity="0.35"/>
      <stop offset="100%" stop-color="#C55A48" stop-opacity="0.55"/>
    </linearGradient>
    <linearGradient id="ridge" x1="0" y1="0" x2="0" y2="1">
      <stop offset="0%" stop-color="#3F9A6A" stop-opacity="0.85"/>
      <stop offset="100%" stop-color="#0F172A" stop-opacity="0.95"/>
    </linearGradient>
  </defs>
  <rect width="1600" height="900" fill="url(#sky)"/>
  <circle cx="800" cy="290" r="160" fill="#F5F7FB" fill-opacity="0.08"/>
  <circle cx="800" cy="290" r="90" fill="#F5F7FB" fill-opacity="0.18"/>
  <path d="M0 640 L240 470 L420 560 L620 380 L820 520 L1020 360 L1240 520 L1420 430 L1600 580 L1600 900 L0 900 Z" fill="url(#ridge)"/>
  <path d="M0 730 L200 640 L380 700 L560 600 L780 690 L980 610 L1180 690 L1380 630 L1600 720 L1600 900 L0 900 Z" fill="#0F172A" fill-opacity="0.85"/>
  <rect width="1600" height="900" fill="url(#aura)" opacity="0.35"/>
</svg>
