<svg xmlns="http://www.w3.org/2000/svg" viewBox="0 0 320 440" preserveAspectRatio="xMidYMax meet" role="img" aria-label="character silhouette placeholder">
  <defs>
    <linearGradient id="robe" x1="0" y1="0" x2="0" y2="1">
      <stop offset="0%" stop-color="#3F9A6A" stop-opacity="0.55"/>
      <stop offset="55%" stop-color="#2C1B10" stop-opacity="0.8"/>
      <stop offset="100%" stop-color="#0F172A" stop-opacity="0.95"/>
    </linearGradient>
    <radialGradient id="halo" cx="50%" cy="18%" r="45%">
      <stop offset="0%" stop-color="#D97706" stop-opacity="0.45"/>
      <stop offset="100%" stop-color="#D97706" stop-opacity="0"/>
    </radialGradient>
  </defs>
  <rect width="320" height="440" fill="transparent"/>
  <rect width="320" height="440" fill="url(#halo)"/>
  <path d="M160 60 C190 60 210 82 210 112 C210 142 190 164 160 164 C130 164 110 142 110 112 C110 82 130 60 160 60 Z" fill="#F5F7FB" fill-opacity="0.12"/>
  <path d="M100 180 C100 160 130 150 160 150 C190 150 220 160 220 180 L246 300 C252 330 234 360 204 368 L116 368 C86 360 68 330 74 300 Z" fill="url(#robe)"/>
  <path d="M80 360 L240 360 L270 440 L50 440 Z" fill="#0F172A" fill-opacity="0.9"/>
  <path d="M150 175 L170 175 L170 300 L150 300 Z" fill="#C55A48" fill-opacity="0.35"/>
</svg>
